<svg xmlns="http://www.w3.org/2000/svg" viewBox="0 0 657.8092 283.6638"><g opacity="0.09"><rect width="657.8092" height="283.6638" fill="none"/></g><circle cx="141.8319" cy="141.8319" r="68" fill="#77a612"/><path d="M180.1446,127.1119a20.6794,20.6794,0,0,0-14.72-6.09h-19.6v-9.01h9.02v-9.02h-18.03v18.03h-18.58a20.81,20.81,0,0,0,0,41.62h18.58v18.03h18.03v-9.02h-9.02v-9.01h19.6a20.8172,20.8172,0,0,0,14.72-35.53Zm-43.33,26.52h-18.58a11.8,11.8,0,0,1,0-23.6h18.58Zm28.61,0h-19.6v-23.6h19.6a11.8,11.8,0,1,1,0,23.6Z" fill="#fff"/><path d="M468.1126,134.8752h-.7534v14.1275h22.57V164.62H452.26V119.0435h48.97V104.916H451.703l-.01,0-.2924.0074a14.5,14.5,0,0,0-14.209,14.4951v44.8264A14.4994,14.4994,0,0,0,451.4053,178.74l52.8381.0075.7535,0V134.8752H468.1126Z" fill="#002800"/><polygon points="330.234 104.916 329.481 104.916 329.481 105.669 329.481 178.748 329.481 178.748 330.234 178.748 344.222 178.748 344.976 178.748 344.976 178.748 344.976 105.669 344.976 104.916 344.222 104.916 330.234 104.916" fill="#002800"/><polygon points="424.133 104.916 410.145 104.916 409.391 104.916 409.391 105.669 409.391 134.876 373.057 105.307 372.576 104.916 371.822 104.916 357.081 104.916 357.081 178.748 357.834 178.748 371.822 178.748 372.576 178.748 372.576 124.893 409.391 154.853 409.391 178.748 410.145 178.748 424.133 178.748 424.886 178.748 424.886 105.669 424.886 104.916 424.133 104.916" fill="#002800"/><path d="M569.4746,104.916H531.8054a14.5191,14.5191,0,0,0-14.5027,14.5027v44.8264a14.5191,14.5191,0,0,0,14.5027,14.5027h37.6692a14.5191,14.5191,0,0,0,14.5027-14.5027V119.4187A14.5191,14.5191,0,0,0,569.4746,104.916Zm-.565,14.1275V164.62H532.37V119.0435Z" fill="#002800"/><path d="M318.0062,119.2512V104.916H266.5347a15.6349,15.6349,0,0,0-15.6171,15.6172v58.2147h15.4032V149.2268h47.0307V134.8916H266.3208v-15.64Z" fill="#002800"/></svg>