<?xml version="1.0" encoding="UTF-8" standalone="no"?>
<svg
   xmlns:dc="http://purl.org/dc/elements/1.1/"
   xmlns:cc="http://creativecommons.org/ns#"
   xmlns:rdf="http://www.w3.org/1999/02/22-rdf-syntax-ns#"
   xmlns:svg="http://www.w3.org/2000/svg"
   xmlns="http://www.w3.org/2000/svg"
   xmlns:sodipodi="http://sodipodi.sourceforge.net/DTD/sodipodi-0.dtd"
   xmlns:inkscape="http://www.inkscape.org/namespaces/inkscape"
   viewBox="0 0 350 60"
   height="60"
   width="350"
   xml:space="preserve"
   id="svg2"
   version="1.1"
   sodipodi:docname="logo_AVS_ai.svg"
   inkscape:version="0.92.3 (2405546, 2018-03-11)"><sodipodi:namedview
     pagecolor="#ffffff"
     bordercolor="#666666"
     borderopacity="1"
     objecttolerance="10"
     gridtolerance="10"
     guidetolerance="10"
     inkscape:pageopacity="0"
     inkscape:pageshadow="2"
     inkscape:window-width="1920"
     inkscape:window-height="1022"
     id="namedview18"
     showgrid="false"
     fit-margin-top="0"
     fit-margin-left="0"
     fit-margin-right="0"
     fit-margin-bottom="0"
     inkscape:zoom="1.2642212"
     inkscape:cx="184.0695"
     inkscape:cy="-62.024866"
     inkscape:window-x="0"
     inkscape:window-y="30"
     inkscape:window-maximized="1"
     inkscape:current-layer="svg2" /><metadata
     id="metadata8"><rdf:RDF><cc:Work
         rdf:about=""><dc:format>image/svg+xml</dc:format><dc:type
           rdf:resource="http://purl.org/dc/dcmitype/StillImage" /><dc:title></dc:title></cc:Work></rdf:RDF></metadata><defs
     id="defs6"><clipPath
       id="clipPath18"
       clipPathUnits="userSpaceOnUse"><path
         id="path16"
         d="M 0,792 H 612 V 0 H 0 Z"
         inkscape:connector-curvature="0" /></clipPath></defs><g
     transform="matrix(1.3333333,0,0,-1.3333333,-202.15094,792.87065)"
     id="g10"><g
       id="g12"><g
         clip-path="url(#clipPath18)"
         id="g14"><g
           transform="translate(168.0737,565.8496)"
           id="g20"><path
             id="path22"
             style="fill:#9b9b9b;fill-opacity:1;fill-rule:evenodd;stroke:none"
             d="m 0,0 c 12.784,20.872 29.963,17.142 42.73,13.217 0.129,-0.039 0.933,0.168 0.807,0.241 C 16.249,29.548 -3.293,5.109 -2.092,0.461 -1.945,-0.109 -0.422,-0.689 0,0"
             inkscape:connector-curvature="0" /></g><g
           transform="translate(179.2612,564.7607)"
           id="g24"><path
             id="path26"
             style="fill:#d8d9d9;fill-opacity:1;fill-rule:evenodd;stroke:none"
             d="m 0,0 c -0.112,0.026 0.167,0.674 0.278,0.685 8.421,0.83 11.562,5.749 12.731,10.077 0.032,0.118 1.371,0.329 1.383,0.205 C 15.14,3.541 6.2,-1.428 0,0"
             inkscape:connector-curvature="0" /></g><g
           transform="translate(221.8652,584.0938)"
           id="g28"><path
             id="path30"
             style="fill:#e87812;fill-opacity:1;fill-rule:evenodd;stroke:none"
             d="M 0,0 H 4.975 L 9.351,-19.588 H 5.418 l -0.912,4.923 H 0.234 l -1.015,-4.923 H -4.636 Z M 3.907,-11.748 2.735,-5.184 2.422,-2.188 2.083,-5.184 0.755,-11.748 Z m 13.662,2.084 c 0,0.765 -0.143,1.385 -0.43,1.863 -0.286,0.477 -0.69,0.716 -1.211,0.716 -0.59,0 -0.99,-0.221 -1.198,-0.664 -0.209,-0.443 -0.313,-1.081 -0.313,-1.915 v -5.001 c 0,-0.885 0.144,-1.563 0.43,-2.032 0.287,-0.469 0.647,-0.703 1.081,-0.703 0.469,0 0.843,0.191 1.12,0.573 0.348,0.469 0.521,1.19 0.521,2.162 z m 0.104,3.205 -0.104,0.703 V 0 h 3.36 v -19.588 h -3.36 v 1.667 c -0.226,-0.642 -0.612,-1.15 -1.159,-1.523 -0.547,-0.374 -1.177,-0.561 -1.889,-0.561 -0.364,0 -0.729,0.052 -1.094,0.157 -0.729,0.225 -1.293,0.716 -1.693,1.463 -0.486,0.907 -0.729,2.153 -0.729,3.738 v 5.07 c 0,1.689 0.287,2.97 0.86,3.842 0.451,0.682 1.093,1.099 1.927,1.255 h 0.86 c 0.764,0 1.376,-0.152 1.836,-0.456 0.46,-0.304 0.855,-0.812 1.185,-1.523 m 6.212,-2.814 c 0,1.772 0.426,3.03 1.277,3.777 0.781,0.677 2.014,1.016 3.698,1.016 1.754,0 3.026,-0.326 3.817,-0.977 0.79,-0.651 1.185,-1.645 1.185,-2.982 v -8.856 c 0,-0.556 0.013,-0.964 0.039,-1.225 0.026,-0.26 0.108,-0.616 0.247,-1.068 h -3.256 c -0.035,0.105 -0.082,0.309 -0.143,0.612 -0.061,0.304 -0.091,0.491 -0.091,0.56 v 0.469 c -0.795,-1.337 -1.837,-2.006 -3.13,-2.006 -0.343,0 -0.595,0.014 -0.76,0.04 -0.165,0.026 -0.452,0.1 -0.869,0.221 -0.754,0.243 -1.297,0.699 -1.628,1.367 -0.325,0.669 -0.49,1.472 -0.49,2.41 0,1.198 0.243,2.171 0.73,2.917 0.382,0.573 0.972,1.094 1.771,1.563 0.33,0.191 1.015,0.504 2.057,0.938 0.817,0.33 1.381,0.634 1.694,0.912 0.312,0.277 0.468,0.659 0.468,1.146 0,0.503 -0.147,0.855 -0.442,1.055 -0.295,0.199 -0.712,0.299 -1.25,0.299 -0.678,0 -1.095,-0.13 -1.251,-0.391 -0.191,-0.243 -0.317,-0.49 -0.377,-0.742 -0.061,-0.252 -0.092,-0.603 -0.092,-1.055 z m 6.616,-2.579 c -0.764,-0.486 -1.519,-0.963 -2.266,-1.432 -0.764,-0.625 -1.146,-1.372 -1.146,-2.24 0.104,-1.112 0.66,-1.737 1.667,-1.876 l 0.73,0.156 c 0.382,0.226 0.646,0.56 0.794,1.003 0.148,0.443 0.221,1.359 0.221,2.748 z m 10.094,6.955 v -1.615 c 0.191,0.625 0.551,1.12 1.081,1.485 0.529,0.364 1.15,0.547 1.862,0.547 1.268,0 2.214,-0.608 2.839,-1.823 0.487,-0.956 0.729,-2.162 0.729,-3.621 v -4.923 c 0,-1.302 -0.155,-2.336 -0.468,-3.1 -0.382,-0.937 -1.007,-1.554 -1.876,-1.849 -0.365,-0.104 -0.772,-0.157 -1.224,-0.157 -0.642,0 -1.215,0.148 -1.719,0.443 -0.573,0.347 -1.033,0.868 -1.381,1.563 v -6.564 h -3.204 v 19.614 z m 3.152,-4.558 c 0,0.799 -0.113,1.393 -0.339,1.784 -0.226,0.391 -0.642,0.586 -1.25,0.586 -0.487,0 -0.868,-0.221 -1.147,-0.664 -0.278,-0.443 -0.416,-1.064 -0.416,-1.862 v -5.288 c 0,-0.782 0.126,-1.372 0.378,-1.771 0.251,-0.4 0.594,-0.625 1.028,-0.678 1.164,0 1.746,0.851 1.746,2.553 z m 11.551,4.558 v -2.422 h -1.432 v -8.648 c 0,-0.487 0.073,-0.777 0.221,-0.873 0.148,-0.095 0.552,-0.143 1.211,-0.143 v -2.657 c -0.121,0 -0.39,-0.017 -0.807,-0.052 -0.417,-0.035 -0.756,-0.052 -1.016,-0.052 -0.886,0 -1.572,0.156 -2.058,0.469 -0.642,0.417 -0.963,1.094 -0.963,2.031 v 9.925 h -1.355 v 2.422 h 1.355 v 4.09 h 3.412 v -4.09 z M 57.89,0 h 3.36 v -3.1 h -3.36 z m 0,-4.897 h 3.36 v -14.691 h -3.36 z m 5.561,0 h 3.646 l 1.59,-8.83 0.364,-3.725 0.339,3.725 1.536,8.83 h 3.621 l -3.412,-14.691 h -4.22 z M 76.123,-9.56 c 0,1.928 0.568,3.309 1.71,4.142 0.847,0.626 1.998,0.938 3.447,0.938 1.624,0 2.818,-0.356 3.577,-1.068 0.916,-0.851 1.372,-2.631 1.372,-5.34 v -2.032 h -6.694 v -2.24 c 0,-0.781 0.135,-1.35 0.403,-1.706 0.27,-0.356 0.673,-0.534 1.212,-0.534 h 0.234 0.182 c 0.417,0.052 0.734,0.296 0.952,0.73 0.216,0.434 0.325,1.12 0.325,2.058 h 3.386 c 0,-1.755 -0.365,-3.083 -1.094,-3.986 -0.729,-0.903 -1.849,-1.355 -3.36,-1.355 -1.65,0 -2.865,0.261 -3.647,0.782 -1.336,0.903 -2.005,2.648 -2.005,5.235 z m 3.412,-0.781 h 3.308 v 1.485 c 0,0.538 -0.078,0.929 -0.23,1.172 -0.239,0.4 -0.721,0.599 -1.437,0.599 -0.668,0 -1.129,-0.208 -1.385,-0.625 -0.169,-0.278 -0.256,-0.66 -0.256,-1.146 z"
             inkscape:connector-curvature="0" /></g><g
           transform="translate(315.3232,583.2866)"
           id="g32"><path
             id="path34"
             style="fill:#e87812;fill-opacity:1;fill-rule:evenodd;stroke:none"
             d="M 0,0 H 6.226 L 9.533,-12.477 12.946,0 h 6.2 l -6.512,-18.781 h -6.2 z M 20.567,-5.105 H 25.96 V -18.78 h -5.393 z m 0,5.6 H 25.96 V -3.36 H 20.567 Z M 36.89,-9.013 c -0.07,0.451 -0.261,0.786 -0.574,1.003 -0.312,0.217 -0.694,0.326 -1.146,0.326 -0.955,0 -1.432,-0.321 -1.432,-0.964 0,-0.452 0.59,-0.825 1.771,-1.12 2.153,-0.469 3.508,-0.816 4.063,-1.042 1.563,-0.643 2.449,-1.571 2.657,-2.787 0.035,-0.139 0.061,-0.335 0.079,-0.586 0.017,-0.252 0.025,-0.387 0.025,-0.404 0,-1.459 -0.686,-2.605 -2.058,-3.438 -1.301,-0.782 -3.055,-1.173 -5.261,-1.173 -1.927,0 -3.464,0.33 -4.611,0.99 -1.371,0.782 -2.127,2.015 -2.265,3.699 h 5.131 c 0,-0.608 0.217,-1.051 0.651,-1.328 0.348,-0.226 0.799,-0.339 1.354,-0.339 0.539,0 0.952,0.095 1.238,0.286 0.286,0.192 0.429,0.47 0.429,0.834 0,0.208 -0.06,0.391 -0.182,0.547 -0.121,0.156 -0.364,0.313 -0.729,0.469 -1.407,0.33 -2.518,0.59 -3.334,0.781 -2.761,0.66 -4.142,1.989 -4.142,3.986 0,1.215 0.443,2.214 1.329,2.995 1.163,1.025 2.926,1.537 5.287,1.537 2.327,0 4.063,-0.451 5.21,-1.355 0.973,-0.763 1.459,-1.736 1.459,-2.917 z m 7.647,3.908 H 49.93 V -18.78 h -5.393 z m 0,5.6 H 49.93 V -3.36 h -5.393 z m 15.359,-5.236 c 2.1,0 3.837,-0.486 5.208,-1.459 1.72,-1.233 2.58,-3.082 2.58,-5.548 0,-2.552 -0.808,-4.48 -2.423,-5.782 -1.371,-1.112 -3.125,-1.668 -5.262,-1.668 -2.205,0 -4.02,0.565 -5.443,1.694 -1.598,1.267 -2.397,3.082 -2.397,5.444 0,2.431 0.781,4.298 2.344,5.6 1.39,1.146 3.186,1.719 5.393,1.719 m 0.156,-3.62 c -0.886,0 -1.537,-0.391 -1.954,-1.173 -0.33,-0.625 -0.494,-1.38 -0.494,-2.266 0,-1.076 0.147,-1.919 0.442,-2.527 0.382,-0.798 0.998,-1.197 1.85,-1.197 0.885,0 1.518,0.364 1.901,1.093 0.33,0.626 0.495,1.502 0.495,2.631 0,0.816 -0.14,1.528 -0.417,2.136 -0.399,0.868 -1.008,1.303 -1.823,1.303 m 9.575,3.256 h 4.923 v -2.188 c 0.66,0.919 1.367,1.575 2.123,1.966 0.756,0.39 1.594,0.586 2.514,0.586 1.58,0 2.813,-0.417 3.699,-1.25 1.058,-0.99 1.588,-2.509 1.588,-4.559 v -8.231 H 79.03 v 7.268 c 0,0.85 -0.143,1.48 -0.429,1.888 -0.288,0.408 -0.769,0.612 -1.447,0.612 -0.712,0 -1.223,-0.174 -1.536,-0.521 -0.399,-0.434 -0.599,-1.189 -0.599,-2.266 v -6.981 h -5.392 z"
             inkscape:connector-curvature="0" /></g></g></g></g></svg>