<?xml version="1.0" encoding="UTF-8" standalone="no"?>
<svg
   xmlns:dc="http://purl.org/dc/elements/1.1/"
   xmlns:cc="http://creativecommons.org/ns#"
   xmlns:rdf="http://www.w3.org/1999/02/22-rdf-syntax-ns#"
   xmlns:svg="http://www.w3.org/2000/svg"
   xmlns="http://www.w3.org/2000/svg"
   xmlns:sodipodi="http://sodipodi.sourceforge.net/DTD/sodipodi-0.dtd"
   xmlns:inkscape="http://www.inkscape.org/namespaces/inkscape"
   viewBox="0 0 450.00001 200"
   height="200"
   width="450"
   xml:space="preserve"
   id="svg2"
   version="1.1"
   sodipodi:docname="ppg_logo.svg"
   inkscape:version="0.92.3 (2405546, 2018-03-11)"><sodipodi:namedview
     pagecolor="#ffffff"
     bordercolor="#666666"
     borderopacity="1"
     objecttolerance="10"
     gridtolerance="10"
     guidetolerance="10"
     inkscape:pageopacity="0"
     inkscape:pageshadow="2"
     inkscape:window-width="2560"
     inkscape:window-height="1382"
     id="namedview9"
     showgrid="false"
     inkscape:zoom="1.2291667"
     inkscape:cx="125.45379"
     inkscape:cy="96"
     inkscape:window-x="0"
     inkscape:window-y="30"
     inkscape:window-maximized="1"
     inkscape:current-layer="svg2" /><metadata
     id="metadata8"><rdf:RDF><cc:Work
         rdf:about=""><dc:format>image/svg+xml</dc:format><dc:type
           rdf:resource="http://purl.org/dc/dcmitype/StillImage" /><dc:title></dc:title></cc:Work></rdf:RDF></metadata><defs
     id="defs6" /><g
     transform="matrix(1.3333333,0,0,-1.3333333,101.17667,195.99866)"
     id="g10"><g
       transform="scale(0.1)"
       id="g12"><path
         id="path14"
         style="fill:#3176af;fill-opacity:1;fill-rule:nonzero;stroke:none"
         d="M 1546.92,0 H 310.441 C 139.699,0 0,139.691 0,310.43 v 819.12 c 0,170.74 139.699,310.43 310.441,310.43 H 1546.92 c 170.75,0 310.43,-139.69 310.43,-310.43 V 310.43 C 1857.35,139.691 1717.67,0 1546.92,0"
         inkscape:connector-curvature="0" /><path
         id="path16"
         style="fill:#ffffff;fill-opacity:1;fill-rule:nonzero;stroke:none"
         d="m 929.23,647.402 c -81.417,0 -133.859,38.098 -133.859,38.098 v 439.02 c 0,36.62 43.32,61.77 80.363,66.39 39.707,4.95 222.596,32.52 222.596,-255.234 0,-259.348 -123.271,-288.274 -169.1,-288.274 z M 330.742,674.52 c -53.926,0 -76.238,23.457 -76.238,23.457 v 264.668 c 0,22.55 16.269,38.035 40.809,40.875 26.3,3.05 145.832,22.14 145.832,-155.082 0,-165.918 -72.989,-173.918 -110.403,-173.918 z M 1560.16,970.887 c 74.23,21.957 149.72,-0.758 209.61,-50.477 v 159.55 c -193.61,30.68 -295.08,9.8 -372.5,-38.25 -62.81,-40.13 -89.47,-94.886 -89.47,-94.886 0,0 -1.4,-2.906 -3.7,-8.125 -10.16,403.791 -257.22,368.611 -552.088,368.531 -82.657,-0.02 -166.055,0 -166.055,0 V 959.266 C 536.965,1103.3 385.645,1087.8 223.73,1087.8 c -58.66,0 -136.1519,-0.02 -136.1519,-0.02 V 351.648 H 310.586 c -37.195,12.93 -56.082,45.204 -56.082,92.051 v 202.246 l 64.336,-64.324 c 28.379,-6.933 53.203,-6.183 53.203,-6.183 61.57,3.402 172.242,27.265 213.914,152.062 V 131.898 h 265.324 c -37.07,12.903 -55.91,44.563 -55.91,91.274 V 623.105 L 895.949,522.883 c 32.481,-11.653 56.375,-13.586 83.797,-12.348 77.404,4.848 209.914,37.539 279.304,177.481 5.71,-131.551 48.81,-263.504 182.27,-315.368 58.75,-24.019 125.52,-30.699 194.96,-25.359 45.37,1.34 89.41,5.371 133.49,13.332 v 360.59 l -203.22,-0.051 c 37.2,-12.93 56.08,-43.543 56.08,-90.39 V 466.531 c -46.35,-14.5 -108.97,-0.191 -143.92,44.981 -44.13,57.062 -52.1,217.668 -33.37,327.199 10.65,54.746 57.53,115.242 114.82,132.176"
         inkscape:connector-curvature="0" /></g></g></svg>