<?xml version="1.0" encoding="UTF-8" standalone="no"?>
<svg
   xmlns:dc="http://purl.org/dc/elements/1.1/"
   xmlns:cc="http://creativecommons.org/ns#"
   xmlns:rdf="http://www.w3.org/1999/02/22-rdf-syntax-ns#"
   xmlns:svg="http://www.w3.org/2000/svg"
   xmlns="http://www.w3.org/2000/svg"
   xmlns:sodipodi="http://sodipodi.sourceforge.net/DTD/sodipodi-0.dtd"
   xmlns:inkscape="http://www.inkscape.org/namespaces/inkscape"
   viewBox="0 0 394.71179 120.60638"
   height="120.60638"
   width="394.71179"
   xml:space="preserve"
   id="svg2"
   version="1.1"
   sodipodi:docname="quantup_logo.svg"
   inkscape:version="0.92.4 (5da689c313, 2019-01-14)"><sodipodi:namedview
     pagecolor="#ffffff"
     bordercolor="#666666"
     borderopacity="1"
     objecttolerance="10"
     gridtolerance="10"
     guidetolerance="10"
     inkscape:pageopacity="0"
     inkscape:pageshadow="2"
     inkscape:window-width="1860"
     inkscape:window-height="994"
     id="namedview26"
     showgrid="false"
     fit-margin-top="0"
     fit-margin-left="0"
     fit-margin-right="0"
     fit-margin-bottom="0"
     inkscape:pagecheckerboard="true"
     inkscape:zoom="2.1889389"
     inkscape:cx="164.6438"
     inkscape:cy="74.706694"
     inkscape:window-x="60"
     inkscape:window-y="49"
     inkscape:window-maximized="1"
     inkscape:current-layer="svg2" /><metadata
     id="metadata8"><rdf:RDF><cc:Work
         rdf:about=""><dc:format>image/svg+xml</dc:format><dc:type
           rdf:resource="http://purl.org/dc/dcmitype/StillImage" /><dc:title></dc:title></cc:Work></rdf:RDF></metadata><defs
     id="defs6"><clipPath
       id="clipPath18"
       clipPathUnits="userSpaceOnUse"><path
         id="path16"
         d="M 0,226.772 H 453.543 V 0 H 0 Z"
         inkscape:connector-curvature="0" /></clipPath></defs><g
     transform="matrix(1.3333333,0,0,-1.3333333,-105.53059,212.88853)"
     id="g10"><g
       id="g12"><g
         clip-path="url(#clipPath18)"
         id="g14"><g
           transform="translate(164.8256,135.4682)"
           id="g20"><path
             id="path22"
             style="fill:#284093;fill-opacity:1;fill-rule:evenodd;stroke:none"
             d="m 0,0 v -28.375 c 0,-4.424 -1.811,-8.447 -4.723,-11.362 -2.914,-2.91 -6.938,-4.719 -11.363,-4.719 h -5.39 c -4.426,0 -8.45,1.809 -11.364,4.719 -2.91,2.915 -4.721,6.935 -4.721,11.362 V 1.565 L -26.949,0 v -28.375 c 0,-1.496 0.617,-2.865 1.612,-3.858 0.996,-0.994 2.362,-1.613 3.861,-1.613 h 5.39 c 1.498,0 2.865,0.619 3.861,1.613 0.995,0.996 1.613,2.365 1.613,3.858 v 29.94 z"
             inkscape:connector-curvature="0" /></g><g
           transform="translate(242.3452,92.7353)"
           id="g24"><path
             id="path26"
             style="fill:#284093;fill-opacity:1;fill-rule:evenodd;stroke:none"
             d="m 0,0 v 28.214 c 0,1.498 -0.617,2.865 -1.615,3.86 -0.994,0.996 -2.362,1.615 -3.861,1.615 h -5.389 c -1.496,0 -2.865,-0.619 -3.86,-1.613 -0.996,-0.996 -1.615,-2.362 -1.615,-3.862 V -1.645 L -26.949,0 v 28.214 c 0,4.428 1.81,8.45 4.723,11.363 2.912,2.913 6.936,4.721 11.361,4.721 h 5.389 c 4.427,0 8.452,-1.809 11.363,-4.721 C 8.801,36.664 10.61,32.64 10.61,28.214 V -1.645 Z"
             inkscape:connector-curvature="0" /></g><g
           transform="translate(327.7124,135.4291)"
           id="g28"><path
             id="path30"
             style="fill:#284093;fill-opacity:1;fill-rule:evenodd;stroke:none"
             d="m 0,0 v -28.296 c 0,-4.423 -1.811,-8.449 -4.723,-11.361 -2.912,-2.91 -6.935,-4.72 -11.363,-4.72 h -5.387 c -4.427,0 -8.449,1.81 -11.367,4.72 -2.91,2.912 -4.719,6.934 -4.719,11.361 v 29.9 L -26.949,0 v -28.296 c 0,-1.497 0.619,-2.865 1.613,-3.857 0.994,-0.997 2.363,-1.613 3.861,-1.613 h 5.389 c 1.5,0 2.865,0.616 3.861,1.613 0.996,0.996 1.614,2.362 1.614,3.857 v 29.9 z"
             inkscape:connector-curvature="0" /></g><g
           transform="translate(366.9897,132.3129)"
           id="g32"><path
             id="path34"
             style="fill:#284093;fill-opacity:1;fill-rule:evenodd;stroke:none"
             d="m 0,0 c -2.914,2.912 -6.936,4.721 -11.361,4.721 h -5.391 c -4.428,0 -8.449,-1.809 -11.367,-4.721 -2.91,-2.912 -4.719,-6.936 -4.719,-11.363 V -25.17 -56.203 l 10.611,-1.607 v 17.543 c 1.711,-0.625 3.551,-0.985 5.473,-0.985 h 5.393 c 4.424,0 8.447,1.81 11.359,4.723 2.914,2.91 4.723,6.934 4.723,11.359 v 13.807 C 4.721,-6.936 2.914,-2.912 0,0 m -5.891,-25.17 c 0,-1.496 -0.615,-2.863 -1.611,-3.857 -0.996,-0.998 -2.363,-1.614 -3.859,-1.614 h -5.391 c -1.498,0 -2.867,0.616 -3.863,1.614 -0.994,0.994 -1.612,2.36 -1.612,3.857 v 13.807 c 0,1.501 0.618,2.867 1.612,3.862 0.996,0.995 2.361,1.612 3.861,1.612 h 5.393 c 1.496,0 2.863,-0.617 3.859,-1.612 0.996,-0.996 1.611,-2.364 1.611,-3.862 z"
             inkscape:connector-curvature="0" /></g><g
           transform="translate(278.4331,101.6298)"
           id="g36"><path
             id="path38"
             style="fill:#284093;fill-opacity:1;fill-rule:evenodd;stroke:none"
             d="m 0,0 c -1.452,0 -2.778,0.601 -3.74,1.564 -0.967,0.964 -1.567,2.29 -1.567,3.743 H -5.326 V 24.673 H 4.893 V 35.285 H -5.326 v 14.47 l -10.568,1.489 V 35.285 h -6.155 V 24.673 h 6.155 V 5.307 h -0.021 c 0,-4.379 1.788,-8.362 4.671,-11.242 C -8.361,-8.82 -4.381,-10.607 0,-10.607 H 5.051 V 0 Z"
             inkscape:connector-curvature="0" /></g><g
           transform="translate(119.1186,100.7431)"
           id="g40"><path
             id="path42"
             style="fill:#284093;fill-opacity:1;fill-rule:evenodd;stroke:none"
             d="M 0,0 C 0.859,1.967 1.342,4.129 1.342,6.399 V 36.24 c 0,4.43 -1.807,8.452 -4.721,11.365 -2.912,2.912 -6.935,4.719 -11.363,4.719 h -5.389 c -4.431,0 -8.451,-1.807 -11.365,-4.719 -2.912,-2.913 -4.719,-6.935 -4.719,-11.365 V 6.399 c 0,-4.427 1.807,-8.448 4.719,-11.36 2.915,-2.914 6.935,-4.722 11.365,-4.722 h 5.389 c 2.263,0 4.415,0.478 6.373,1.328 C -7.795,-4.016 -4.344,-0.566 0,0 m -10.88,2.541 c -0.996,-0.996 -2.363,-1.613 -3.862,-1.613 h -5.389 c -1.5,0 -2.868,0.617 -3.862,1.611 -0.995,0.995 -1.614,2.363 -1.614,3.86 V 36.24 c 0,1.502 0.619,2.869 1.614,3.863 0.993,0.994 2.362,1.613 3.862,1.613 h 5.389 c 1.499,0 2.868,-0.619 3.862,-1.613 0.995,-0.994 1.612,-2.363 1.612,-3.863 V 6.399 c 0,-1.497 -0.617,-2.865 -1.612,-3.858"
             inkscape:connector-curvature="0" /></g><g
           transform="translate(120.3784,85.5556)"
           id="g44"><path
             id="path46"
             style="fill:#e9563a;fill-opacity:1;fill-rule:evenodd;stroke:none"
             d="M 0,0 C 3.06,0 5.555,2.498 5.555,5.559 5.555,8.615 3.06,11.112 0,11.112 -3.061,11.112 -5.557,8.615 -5.557,5.559 -5.557,2.498 -3.061,0 0,0"
             inkscape:connector-curvature="0" /></g><g
           transform="translate(197.3598,107.1328)"
           id="g48"><path
             id="path50"
             style="fill:#284093;fill-opacity:1;fill-rule:evenodd;stroke:none"
             d="M 0,0 C 0,-1.494 -0.619,-2.861 -1.614,-3.855 -2.61,-4.854 -3.976,-5.471 -5.476,-5.471 h -5.388 c -1.499,0 -2.867,0.617 -3.862,1.616 -0.994,0.992 -1.613,2.357 -1.613,3.855 v 13.902 c 0,1.498 0.619,2.863 1.613,3.857 0.995,0.996 2.363,1.614 3.862,1.614 h 5.388 c 1.5,0 2.866,-0.618 3.862,-1.614 C -0.619,16.763 0,15.398 0,13.902 Z m 5.887,25.263 c -2.911,2.91 -8.753,4.721 -13.18,4.721 h -3.57 c -4.428,0 -8.449,-1.811 -11.366,-4.721 -2.912,-2.914 -4.719,-6.935 -4.719,-11.361 V 0 c 0,-4.426 1.807,-8.447 4.719,-11.359 2.917,-2.912 6.938,-4.723 11.366,-4.723 h 3.57 c 2.625,0 5.101,0.649 7.294,1.774 v -10e-4 L 10.61,-16.045 V 0 6.916 13.902 c 0,4.424 -1.809,8.447 -4.723,11.361"
             inkscape:connector-curvature="0" /></g></g></g></g><rect
     id="rect3731"
     width="394.71179"
     height="120.60638"
     x="0"
     y="0"
     style="fill:none" /></svg>