<?xml version="1.0" encoding="UTF-8" standalone="no"?>
<!-- Created with Inkscape (http://www.inkscape.org/) -->

<svg
   xmlns:dc="http://purl.org/dc/elements/1.1/"
   xmlns:cc="http://creativecommons.org/ns#"
   xmlns:rdf="http://www.w3.org/1999/02/22-rdf-syntax-ns#"
   xmlns:svg="http://www.w3.org/2000/svg"
   xmlns="http://www.w3.org/2000/svg"
   xmlns:sodipodi="http://sodipodi.sourceforge.net/DTD/sodipodi-0.dtd"
   xmlns:inkscape="http://www.inkscape.org/namespaces/inkscape"
   version="1.1"
   id="svg2"
   xml:space="preserve"
   width="720"
   height="292"
   viewBox="0 0 720 292"
   sodipodi:docname="TSG_logotyp_RED.svg"
   inkscape:version="0.92.3 (2405546, 2018-03-11)"><metadata
     id="metadata8"><rdf:RDF><cc:Work
         rdf:about=""><dc:format>image/svg+xml</dc:format><dc:type
           rdf:resource="http://purl.org/dc/dcmitype/StillImage" /><dc:title></dc:title></cc:Work></rdf:RDF></metadata><defs
     id="defs6" /><sodipodi:namedview
     pagecolor="#ffffff"
     bordercolor="#666666"
     borderopacity="1"
     objecttolerance="10"
     gridtolerance="10"
     guidetolerance="10"
     inkscape:pageopacity="0"
     inkscape:pageshadow="2"
     inkscape:window-width="1920"
     inkscape:window-height="1022"
     id="namedview4"
     showgrid="false"
     inkscape:zoom="0.44855771"
     inkscape:cx="273.09753"
     inkscape:cy="146"
     inkscape:window-x="0"
     inkscape:window-y="30"
     inkscape:window-maximized="1"
     inkscape:current-layer="g10" /><g
     id="g10"
     inkscape:groupmode="layer"
     inkscape:label="ink_ext_XXXXXX"
     transform="matrix(1.3333333,0,0,-1.3333333,0,292)"><g
       id="g12"
       transform="matrix(0.1,0,0,0.1,10.5,0)"><path
         d="m 3122.89,17.0703 -23.79,16.1289 185.74,1.7227 c 170.32,1.5976 186.68,2.2265 197.07,7.9297 13.09,7.1484 17.93,17.5 17.93,38.3203 v 14.8086 l -74.92,1.9101 c -81.64,2.0313 -102.19,5.7384 -121.4,21.9494 -20.67,17.351 -22.47,24.5 -22.47,89.07 0,56.051 0.4,59.25 8.64,74.102 6.76,12.187 13.01,17.687 29.29,25.82 l 20.67,10.348 107.81,1.019 107.81,1.051 -1.01,-133.668 C 3553.24,55.1992 3553.16,53.75 3545.31,40.0391 3540.94,32.4219 3531.91,22.4609 3525.2,17.8516 3502.27,2.14844 3482.85,0.589844 3308.63,0.78125 l -161.91,0.117188 z m 376.95,190.3087 v 76.019 l -72.65,-1.058 -72.62,-1.051 -10.04,-11.289 -10.08,-11.25 v -51.211 c 0,-74.379 1.88,-75.738 102.5,-75.98 l 62.89,-0.149 z M 1673.71,51.8398 l -25.94,23.6719 -77.42,1.6797 c -43.01,0.9297 -82.97,3.3984 -89.88,5.5781 -18.99,5.9414 -34.84,18.0895 -43.44,33.2105 -7.3,12.93 -7.73,17.571 -7.77,81.829 -0.08,76.332 1.48,83.671 21.76,101.453 22.26,19.57 36.56,21.636 149.33,21.636 h 101.02 V 174.449 c 0,-80.4998 -0.39,-146.3592 -0.86,-146.3279 -0.47,0.0391 -12.54,10.7109 -26.8,23.7187 z M 1649.69,198.59 v 84.422 h -69.77 c -63.63,0 -70.74,-0.633 -81.05,-6.922 -6.21,-3.789 -12.78,-10.86 -14.65,-15.699 -4.96,-13.121 -4.26,-112.852 0.9,-124.18 8.32,-18.281 24.41,-21.871 98.24,-21.949 l 66.33,-0.082 z M 75.1602,78.6289 C 43.9102,83.8711 21.8398,98.0898 9.26172,121.051 5.58984,127.77 4.30078,155.859 3.48047,247.699 2.89063,312.582 3.39844,365.66 4.60938,365.66 c 1.21093,0 13.75002,-10.07 27.85152,-22.379 L 58.1602,320.898 H 147.5 V 289.879 H 57.9297 v -74.258 c 0,-84.84 1.2891,-90.191 24.0586,-99.289 7.7031,-3.094 16.6836,-5.633 19.9607,-5.633 3.25,0 17.582,-7.73 31.801,-17.1795 l 25.82,-17.2304 -37.89,0.4726 c -20.86,0.2266 -41.8011,1.0899 -46.5198,1.8672 z M 295.66,81.0195 c -21.211,4.6797 -32.379,9.8789 -44.25,20.6605 -16.801,15.23 -19.031,24.41 -20.551,85.039 -1.8,72.5 1.719,91.761 20.192,110.23 21.57,21.571 38.051,24.653 124.73,23.321 l 73.199,-1.09 18.911,-10.348 c 29.14,-15.941 35.589,-30.352 37.379,-83.562 l 1.41,-42.18 H 281.09 l 1.41,-22.231 c 0.98,-15.66 3.398,-24.41 8.16,-29.73 13.871,-15.578 23.481,-16.949 116.918,-16.949 h 88.012 l 24.058,-17.5003 c 13.243,-9.6484 24.102,-18.1602 24.102,-18.9492 0,-3.711 -230.352,-0.6211 -248.09,3.289 z M 454.141,236.332 c 0,22.219 -4.692,34.02 -16.871,42.297 -13.168,8.953 -108.129,10.98 -129.61,2.781 -18.012,-6.84 -25.781,-20.82 -25.781,-46.289 V 217.539 H 454.141 Z M 595.43,198.59 v 122.308 h 51.679 v -24.726 l 10.43,8.789 c 16.211,13.629 31.012,15.898 103.242,15.82 72.848,-0.043 85.469,-2.66 102.27,-20.98 13.828,-15.031 14.879,-24.02 14.879,-125.539 V 76.2891 h -48.239 l -0.082,81.8009 c -0.039,45 -1.519,88.039 -3.238,95.621 -1.801,7.738 -7.23,17.269 -12.422,21.719 -9.07,7.808 -10.398,7.929 -78.008,6.91 l -68.793,-1.051 -8.32,-9.687 -8.277,-9.653 V 76.2891 H 595.43 Z M 1046.76,79.0586 c 0,1.8008 8.4,10.4297 18.63,19.1797 l 18.63,15.9417 h 90.75 c 106.05,0 112.65,1.441 117.81,25.98 2.15,10.192 1.52,17.301 -2.31,26.481 -7.3,17.5 -18.82,19.839 -97.22,19.839 -92.27,0.04 -116.33,6.918 -127.66,36.532 -7.15,18.75 -5.08,51.25 4.34,67.687 3.9,6.84 13.16,14.61 23.59,19.852 17.11,8.59 17.62,8.629 125.7,9.449 l 108.52,0.859 -20.66,-18.949 -20.67,-18.898 h -77.93 c -73.59,0 -78.4,-0.391 -86.99,-7.153 -7.54,-5.937 -9.06,-9.918 -9.06,-23.519 0,-13.16 1.75,-18.039 8.86,-24.719 8.71,-8.211 10.51,-8.402 87,-10.551 81.87,-2.269 90.78,-3.398 111.64,-13.832 17.61,-8.828 23.32,-21.476 23.32,-51.636 0,-35.903 -8.21,-51.403 -33.83,-63.9809 l -19.57,-9.6094 -121.45,-1.1015 c -74.92,-0.6993 -121.44,0.1211 -121.44,2.1484 z m 800.51,0.3125 c -26.33,6.7187 -44.14,23.6409 -49.57,47.1089 -1.72,7.469 -3.17,54.219 -3.21,103.989 l -0.08,90.429 h 51.33 l 1.06,-92.968 1.01,-92.93 9.53,-9.57 9.54,-9.532 61.09,-0.976 c 53.05,-0.863 62.69,-0.152 73.16,5.16 18.6,9.488 20.24,18.75 20.47,115.539 l 0.2,85.277 h 51.68 V 76.2891 h -51.68 l -0.12,14.6093 c -0.08,11.6836 -0.82,13.4416 -3.63,8.5899 -1.92,-3.3164 -10.04,-9.4492 -17.97,-13.6289 -13.17,-6.8789 -20.16,-7.6602 -78.2,-8.3985 -35.04,-0.4726 -68.64,0.3907 -74.61,1.9102 z m 365.15,0.5078 c -20.82,4.1016 -34.96,12.3906 -42.62,24.9611 -5.5,9.07 -6.71,17.43 -6.75,46.531 0,42.149 4.02,52.301 25.04,63.551 13.9,7.418 18.82,7.808 105.04,8.91 l 90.42,1.09 v 16.918 c 0,13.82 -1.83,18.98 -10.03,28.16 l -10.04,11.25 -64.93,1.09 -64.92,1.058 -51.48,37.5 h 91.44 c 102.43,0 117.89,-2.418 139.81,-21.636 21.13,-18.563 21.83,-22.742 21.83,-128.133 V 76.2891 l -104.21,0.3515 c -57.35,0.1992 -110.71,1.6797 -118.6,3.2383 z m 171.13,72.1911 v 41.328 h -71.83 c -96.92,0 -100.43,-1.488 -100.43,-42.226 0,-18.442 1.25,-23.203 7.73,-29.184 4.26,-3.898 10.86,-7.886 14.65,-8.789 3.79,-0.929 39.06,-1.867 78.4,-2.07 l 71.48,-0.391 z m 144.69,46.52 v 122.308 h 51.68 v -24.726 l 10.47,8.789 c 15.51,13.051 30.86,15.898 85.94,15.898 l 49.88,0.039 -25.62,-18.668 -25.59,-18.64 -37.5,-1.168 c -36.17,-1.09 -37.77,-1.481 -45.82,-10.82 l -8.28,-9.653 V 76.2891 h -55.16 z M 2863.16,80.1211 c -30.74,5.1094 -48.59,16.5586 -59.64,38.1989 -5.75,11.328 -6.53,20.899 -6.53,82.418 0,67.422 0.28,70.043 8.36,83.832 5.59,9.532 14.45,17.66 26.72,24.45 l 18.32,10.16 73.05,1.129 c 85.62,1.371 102.58,-1.719 124.61,-22.77 17.15,-16.328 21.09,-30.777 21.09,-77.418 l 0.04,-37.031 h -223.95 v -16.371 c 0,-21.52 9.07,-38.989 24.15,-46.52 10.15,-5.078 21.99,-6.019 75.35,-6.019 h 63.28 l 22.85,-16.0198 c 12.54,-8.8204 24.3,-17.3399 26.09,-18.9805 4.3,-3.8281 -170.15,-3.0078 -193.79,0.9414 z m 154.3,157.2189 c -0.12,42.191 -11.87,49.07 -83.63,49.109 -72.62,0 -84.53,-6.289 -87.74,-46.367 l -1.79,-22.543 h 173.2 z M 3693.32,79.9609 c -18.79,3.711 -33.87,12.418 -43.24,25.0001 -6.29,8.437 -7.27,14.488 -7.27,46.488 0,42.461 3.71,51.09 27.27,63.711 13.32,7.11 19.18,7.61 104.53,8.672 l 90.43,1.09 v 16.918 c 0,13.82 -1.84,18.98 -10.04,28.16 l -10.04,11.25 -66.6,1.762 -66.64,1.718 -22.38,16.68 c -12.31,9.18 -23.13,17.422 -24.07,18.32 -0.93,0.891 42.46,1.129 96.45,0.54 85.35,-1.008 99.96,-1.95 111.91,-7.301 18.25,-8.199 28.87,-18.438 36.6,-35.16 5.67,-12.297 6.37,-23.75 6.45,-107.649 l 0.04,-93.8709 -104.22,0.3515 c -57.3,0.1992 -110.94,1.7188 -119.18,3.3203 z m 171.72,72.1091 v 41.328 h -71.84 c -74.22,0 -90.86,-2.378 -97.03,-13.91 -4.84,-9.019 -4.18,-49.136 0.94,-56.129 7.38,-10.078 22.66,-12.027 96.44,-12.339 l 71.49,-0.282 z m 144.73,46.52 v 122.308 h 51.68 V 295.59 l 7.81,7.301 c 16.01,15.078 30.04,18.007 85.97,17.929 57.97,-0.082 73.83,-4.019 87.86,-21.91 l 7.14,-9.07 11.76,11.762 c 17.11,17.109 32.58,20.039 99.14,18.707 56.33,-1.129 57.7,-1.329 72.07,-10.86 26.45,-17.5 27.74,-23.828 27.82,-135.859 l 0.07,-97.3009 h -51.68 V 166.02 c 0,97.73 -1.56,106.91 -19.33,113.671 -4.77,1.829 -30.24,3.321 -56.64,3.321 h -47.93 l -11.25,-10.082 -11.25,-10.039 -1.02,-93.321 -1.05,-93.2809 h -51.33 V 262.852 l -20.16,20.16 h -51.75 c -48.72,0 -52.27,-0.473 -60.75,-7.782 -4.96,-4.289 -10.39,-13.898 -12.15,-21.519 -1.75,-7.582 -3.24,-50.621 -3.28,-95.621 l -0.07,-81.8009 h -51.68 z m 610.5,-118.4689 c -30.7,5.1094 -48.55,16.5586 -59.61,38.1989 -5.78,11.289 -6.52,20.899 -6.52,81.289 0,64.653 0.43,69.371 7.81,83.321 5.67,10.699 13.13,17.808 26.72,25.55 l 18.87,10.7 73.05,1.129 c 85.62,1.371 102.57,-1.719 124.61,-22.77 17.14,-16.328 21.05,-30.777 21.09,-77.418 l 0.04,-37.031 h -224.92 l 1.91,-20.82 c 1.02,-11.411 4.45,-24.731 7.62,-29.571 11.17,-17.039 21.17,-18.519 124.02,-18.519 h 94.92 l 24.07,-17.5003 c 13.24,-9.6484 24.06,-18.1602 24.06,-18.9492 0,-2.8516 -239.77,-0.6211 -257.7,2.3906 z m 154.38,159.0199 c 0,40.629 -11.92,47.308 -84.42,47.308 -71.56,0 -83.16,-6.449 -86.95,-48.129 l -1.87,-20.781 h 173.24 z m 193.36,-145.0004 -25.35,18.3204 180.54,3.437 8.32,9.653 c 8.99,10.429 11.29,31.75 4.81,43.898 -7.38,13.75 -16.17,15.281 -99.85,17.231 -72.07,1.64 -82.65,2.621 -96.48,8.941 -24.77,11.367 -29.06,18.399 -30.51,49.93 -1.44,31.719 2.35,43.508 18.6,57.769 17.42,15.309 36.17,17.578 145.35,17.578 h 98.63 l -25.35,-18.949 -25.31,-18.937 h -70.2 c -80.58,0 -88.63,-1.961 -92.46,-22.391 -3.28,-17.383 0.66,-28.633 12.54,-35.851 9.02,-5.508 20.74,-6.61 86.91,-8.129 86.02,-2.032 106.14,-5.903 120.67,-23.121 10.58,-12.622 14.18,-36.61 9.29,-62.11 -4.61,-24.301 -11.87,-34.1405 -33,-44.7694 -16.25,-8.1601 -20.36,-8.5898 -89.38,-9.6914 l -72.38,-1.1289 z"
         style="fill:#000000;fill-opacity:1;fill-rule:nonzero;stroke:none"
         id="path14"
         inkscape:connector-curvature="0" /><path
         d="m 2464.92,953.16 -126.52,126.57 -18.24,-17.97 -18.21,-18.01 -85.19,85.27 -85.24,85.28 18.09,18.04 18.05,18.09 -254.85,254.92 254.77,254.85 -17.97,18.2 -17.97,18.24 83.52,83.48 c 45.93,45.9 85.04,83.47 86.83,83.47 1.84,0 10.74,-7.34 19.85,-16.29 l 16.56,-16.28 254.84,254.76 254.85,-254.76 16.52,16.28 c 9.1,8.95 18.05,16.29 19.84,16.29 1.8,0 40.9,-37.57 86.84,-83.47 l 83.51,-83.48 -17.96,-18.24 -17.97,-18.2 254.76,-254.85 -254.76,-254.84 35.93,-36.41 -86.01,-86.01 -86.06,-85.98 -36.4,35.94 -125.67,-125.71 c -69.14,-69.141 -126.44,-125.738 -127.42,-125.738 -0.97,0 -58.71,56.949 -128.32,126.558 z m -40.51,212.82 84.34,84.41 h 168.83 l 170.62,-170.47 84.42,84.34 84.41,84.37 -168.83,168.83 -84.37,-84.3 -84.34,-84.29 -0.94,84.29 -0.89,84.34 -85.28,0.94 -85.27,0.9 v 168.71 h -168.83 v -168.83 h 168.83 v -170.51 l -168.83,168.75 -168.83,-168.75 83.52,-83.55 c 45.94,-45.98 84.33,-83.6 85.31,-83.6 0.98,0 39.73,38.01 86.13,84.42 z m 423.79,337.65 v 84.42 h -168.82 v -168.83 h 168.82 z m -170.54,170.55 v 84.41 h -168.83 l -0.94,-80.89 c -0.51,-44.5 -0.16,-82.9 0.78,-85.36 1.33,-3.47 19.61,-4.22 85.35,-3.51 l 83.64,0.94 z m -254.11,0.9 83.56,83.55 -84.41,84.38 -84.42,84.33 -84.41,-84.33 -84.42,-84.38 83.52,-83.55 c 45.94,-45.98 84.33,-83.6 85.31,-83.6 0.98,0 39.34,37.62 85.27,83.6 z m 509.93,0 83.51,83.55 -84.41,84.38 -84.38,84.33 -84.41,-84.33 -84.41,-84.38 83.51,-83.55 c 45.94,-45.98 84.34,-83.6 85.31,-83.6 0.98,0 39.34,37.62 85.28,83.6 z"
         style="fill:#db0c14;fill-opacity:1;fill-rule:nonzero;stroke:none"
         id="path16"
         inkscape:connector-curvature="0" /></g></g></svg>